<svg viewBox="0 0 200 200" xmlns="http://www.w3.org/2000/svg"><path d="M192.531 187.528c-61.209-2.3-123.65-1.239-184.876-.626-.8.008-.941 1.457-.121 1.424 61.848-2.515 123.092-1.482 184.883.5.734.022.862-1.269.114-1.298ZM179.433 39.917a.5.5 0 0 0 .847.072c.309-.41.629-5.918 2.721-8.49.329-.4-.1-.72-.484-.606-1.584.475-3.548 8.081-3.084 9.024ZM182.189 61.484a.641.641 0 1 0-.142 1.275c2.709.329 4.793-1.837 6.1-3.932 2.58-4.123 1.991-3.554 5.983-5.9.471-.277.235-.878-.306-.712-3.066.938-4.325 2.278-5.99 4.914-1.234 1.961-2.912 4.7-5.645 4.355ZM182.025 53.678c1.066-.489 1.376-5.75-.02-4.979a.491.491 0 0 0-.25.378 9.2 9.2 0 0 1-.456 3.561c-.364 1.094.463 1.162.726 1.04Z" fill-rule="evenodd" fill="#212529" class="fill-191919"></path><path d="M181.584 54.661c-.521.376.057 1.147.6.911 3.718-1.616 3.042-6.647 9.145-11.353a.491.491 0 0 0-.584-.79c-5.379 3.44-5.173 8.351-9.161 11.232ZM194.183 49.041a11.565 11.565 0 0 0-5.961 3.846.463.463 0 0 0 .755.527 15.779 15.779 0 0 1 5.462-3.454c1.076-.477.382-1.103-.256-.919ZM174.475 37.019c1.948-2.327.13-6.752.905-8.747.235-.6-.377-.918-.755-.242-1.046 1.874.414 5.976-.855 8.426-.206.399.407.919.705.563ZM177.381 43.172a.663.663 0 1 0-.114 1.318 4.161 4.161 0 0 0 3.868-2.094c.861-1.549.479-2.257 2.678-3.561.486-.289.131-.821-.363-.712-3.203.702-2.643 5.341-6.069 5.049ZM178.129 36.435a.535.535 0 0 0 1.026-.072c.235-.712-.095-6.269 1.88-8.141.358-.339.057-.776-.37-.619-2.222.813-2.785 7.642-2.536 8.832ZM177.453 35.174c.183-1.055-.864-4.091.854-8.3.2-.5-.427-.947-.712-.434a14.437 14.437 0 0 0-1.068 8.9c.081.397.854.247.926-.166ZM187.061 51.007a.456.456 0 0 0 .712.548c2.3-2.2 3.341-3.68 6.453-5.391.491-.271.263-.774-.193-.77-1.559.016-5.962 3.787-6.972 5.613ZM193.663 118.669c-.772-.233-3.274.331-4.109.5a37.762 37.762 0 0 0-9.673 3.177c-.719.363-.305 1.412.449 1.047a36.919 36.919 0 0 1 12.535-3.483c.747-.073.155.715-.178 1.146-1.622 2.1-11.491 9.026-13.9 10.6-.827.54-.867.707-1.481-.156a40.56 40.56 0 0 1-2.464-3.8c-.315-.565-1.2-.033-.926.556a27.415 27.415 0 0 0 2.4 4.088c.927 1.326 1.794 1.314 2.984.534 2.149-1.406 11.772-7.989 14.281-10.883.774-.904 1.672-2.845.082-3.326ZM67.07 137.643c1.136.367 2.18-.541 2.778-1.388 2.067-2.934 3.882-5.976 5.876-8.968.342-.512-.251-1.161-.712-.633-2.09 2.388-5.467 8.009-6.574 9.18-1.344 1.421-.993-.242-.791-1.645.513-3.562 3.58-12.327 5.313-15.776.425-.845.474-1.254 1.282-1.083a16.53 16.53 0 0 1 3.811 1.354.527.527 0 1 0 .568-.888c-1.315-.842-4.248-2.351-5.554-1.733-2.215 1.046-6.4 14.95-6.773 18.09-.125 1.047-.594 3.047.776 3.49ZM25.055 91.69c.264.527 1.131.141.948-.413a65.385 65.385 0 0 0-5.7-12.536c-.577-.98-2.067-1.075-1.161.791 1.112 2.287 5.55 11.431 5.913 12.158ZM37.356 92.423c.655-4.131 1.894-10.575 2.393-14.693.094-.776-1.116-.933-1.3-.228a106.319 106.319 0 0 0-2.094 14.879.5.5 0 0 0 1.001.042ZM48.645 95.579c3-3.115 6.312-6.317 9.259-9.779.471-.555-.371-1.239-.905-.827-1.752 1.354-8.118 8.123-9.152 9.929-.325.568.277 1.218.798.677ZM92.233 174.288c-3.831 2.971-2.241 9.487 3.077 10.256a6.173 6.173 0 0 0 7.037-6.709c-.38-3.663-5.633-7.022-10.114-3.547Zm2.757 6.253a2 2 0 0 1 .833-3.632 2.18 2.18 0 0 1 2.486 1.966c.123 1.58-2.323 2.344-3.319 1.666ZM124.526 34.041c-.363 1.723.866.272 4.274 1.119.8.2 1.12-.213 1-.955a2.858 2.858 0 0 0-2.7-2.428 2.642 2.642 0 0 0-2.574 2.264Zm4.516.342a6.049 6.049 0 0 0-3.86-.178 1.946 1.946 0 0 1 3.86.178ZM120.986 28.023c-.711.273-.2 1.909.535 1.7s.236-1.996-.535-1.7ZM126.343 28.721c.716-.244.2-2.137-.6-1.681s-.038 1.898.6 1.681ZM124.711 24.02a.6.6 0 0 0 .342.969c.371 0 1.29-.328 2.009.256.42.342.862-.085.541-.619a2.279 2.279 0 0 0-2.892-.606ZM123.451 28.486c-.031-1.118-.712-.613-.8.655 0 .556-.088 2.182.442 2.707.418.415 1.46-.185 1.759-.5s.12-.722-.271-.662a8.893 8.893 0 0 0-.89.285 17.424 17.424 0 0 1-.24-2.485ZM121.058 25.039a2.014 2.014 0 0 0-1.745 1.8c-.121.569.491.847.712.313a1.342 1.342 0 0 1 1.175-1.04c.576-.047.356-1.08-.142-1.073Z" fill-rule="evenodd" fill="#212529" class="fill-191919"></path><path d="M124.263 40.245c2.763 1.147 5.395-.257 7.122-2.507.39-.508-.191-.96-.655-.534-7.524 6.91-11.183-3.246-12.749-13.291-.138-.882-.951-.62-.876.143.424 4.307 2.222 13.212 6.211 15.719a12.682 12.682 0 0 1-.713 2.45c-.496 1.242 1.018 1.075 1.66-1.98Z" fill-rule="evenodd" fill="#212529" class="fill-191919"></path><path d="M109.534 24.9c6.971-2.574 14.529-3.96 20.063-3.668a11.4 11.4 0 0 0 3.141 5.627c.834.634.948-1.175 2.287-.641s1.494 5.477-.235 5.1c-1.867-.407.088 2.475-2.685 13.867-.173.71.706.953.9.242.849-3.155 2.137-9.423 2.058-12.82 3.22-.178 2.849-7.016.05-7.571a25 25 0 0 0-2.5-12.642c-1.211-2.579-1.723-.8-1.823 2.742-11.318-5.5-18.866-2.516-16.8-1.66a14.824 14.824 0 0 1 4.274 2.678c-6.245 1.891-12.506 10.146-8.73 8.746ZM108.01 110.756c10.52 2.97 32.456-3.24 36.324-3.105s20.555 13.632 27.435 19.031c1.617-.748 6.567-4.159 8.39-6.545-3.248-5.513-22.666-29.823-33.219-33.789-3.259-1.225-14.031.468-21.787 2.692-9.032 2.591-18.205 4.9-32.172 4.373.356 5.734 4.502 14.372 15.029 17.343Z" fill-rule="evenodd" fill="#212529" class="fill-191919"></path><path d="M114.975 136.126c4.928-2.353 8.547-17.542 10.128-24.066-13.632 2.2-18.853-.271-21.773-1.617.121 1.638.271 9.081-.541 9.971s-18.354-1.032-21.816-2.136c-1.261 2.656-3.105 5.292-4.231 9.259 6.482 4.387 33.158 11.015 38.233 8.589ZM135.737 184.437c.478-.269 5.534-16.8 4.793-17.407s-10.256 9.11-11.068 9.259-5.869-7.086-6.474-7.015-6.346 8.1-7.122 8.226-4.787-5.869-5.392-5.869-6.311 5.164-6.852 5.534a7.263 7.263 0 0 1-.1 4.388c2.052.32 31.745 3.147 32.215 2.884ZM52.405 165.592c-.493.625 4.772 18.219 5.442 18.518s28.838-2.61 30.953-2.849a6.259 6.259 0 0 1 0-4.366c-.656-.577-5.535-5.848-6.3-5.89s-4.045 5.441-4.765 5.619-7.556-8.547-8.055-8.59-4.537 7.557-5.171 7.707-11.609-10.778-12.104-10.149Z" fill-rule="evenodd" fill="#212529" class="fill-191919"></path><path d="M27.733 147.159a6.417 6.417 0 0 0-7.272 6.944c.38 3.785 5.839 7.281 10.456 3.675 3.983-3.106 2.327-9.859-3.184-10.619Zm-2.606 7.015c-1.738-2.136 1.561-4.47 3.24-2.25a1.962 1.962 0 0 1-3.24 2.215ZM175.3 45.8a9.109 9.109 0 0 0-3.711-8.276c-8.141 3.134-23.461 6.952-37.628 8.547 4.117 3.4 16.382 5.8 21.246 6.332 6.776-.62 16.156-3.789 20.093-6.603ZM45.724 103.064c-.67.405 2.771 11.809 2.23 12.55s-9.85 2.293-10.057 3.055 3.177 12.621 2.635 13.362-8.447 3.49-8.7 3.96-.072 9.537 0 10.748a5.227 5.227 0 0 1 2.7 3.689c2.493-2.849 25.911-34.75 25.705-35.961s-13.837-11.81-14.513-11.403ZM24.251 145.606c.17-.812 2.136-11.1 2.136-12.179s-7.122-4.046-7.507-5.128S25.625 117.772 26 116.9s-9.345-4.138-9.7-5.043 8.981-12.528 8.711-13.133-19.343 4.654-19.991 5.914 14.572 40.213 15.669 42.556a6.313 6.313 0 0 1 3.562-1.588Z" fill="#0d6efd" fill-rule="evenodd" class="fill-38a1ff"></path><path d="M179.7 54.383c-1.716.164-22.791-.1-30.8-1.567-17.357-3.19-16.382-8.016-29.58-8.816-18.2-1.1-29.8 29.238-26.652 48.226 10.748.178 26.089-2.137 32.051-4.409-.136-1.666-1.264-5.57-.77-8.817.616-4.046 3.348-8.64 5.292-12.379-2.094-.406-6.409-1.426-8.126-2.393-.748-.421-.391-.865.228-.712a129.036 129.036 0 0 0 57.57 1.111c1.424-2.182 1.524-7.986.787-10.244Z" fill="#0d6efd" fill-rule="evenodd" class="fill-38a1ff"></path></svg>