<?xml version="1.0" encoding="UTF-8" standalone="no"?>
<svg
   xmlns:dc="http://purl.org/dc/elements/1.1/"
   xmlns:cc="http://creativecommons.org/ns#"
   xmlns:rdf="http://www.w3.org/1999/02/22-rdf-syntax-ns#"
   xmlns:svg="http://www.w3.org/2000/svg"
   xmlns="http://www.w3.org/2000/svg"
   xmlns:sodipodi="http://sodipodi.sourceforge.net/DTD/sodipodi-0.dtd"
   xmlns:inkscape="http://www.inkscape.org/namespaces/inkscape"
   version="1.1"
   id="svg2"
   xml:space="preserve"
   width="666.66669"
   height="666.66669"
   viewBox="0 0 666.66669 666.66669"
   sodipodi:docname="logo-sensometric-svg.svg"
   inkscape:version="1.0.1 (3bc2e813f5, 2020-09-07)"><metadata
     id="metadata8"><rdf:RDF><cc:Work
         rdf:about=""><dc:format>image/svg+xml</dc:format><dc:type
           rdf:resource="http://purl.org/dc/dcmitype/StillImage" /><dc:title /></cc:Work></rdf:RDF></metadata><defs
     id="defs6"><clipPath
       clipPathUnits="userSpaceOnUse"
       id="clipPath20"><path
         d="m 1462.83,1084.53 36.43,-27.14 c -16.78,-31.77 -39.73,-56.22 -68.87,-73.32 -29.12,-17.101 -62.23,-25.648 -99.3,-25.648 -54.73,0 -99.92,18.039 -135.55,54.118 -35.64,36.08 -53.45,81.82 -53.45,137.21 0,55.61 17.87,101.45 53.61,137.54 35.76,36.08 80.88,54.12 135.39,54.12 33.77,0 64.55,-7.41 92.36,-22.18 27.8,-14.79 50.41,-35.87 67.86,-63.22 l -38.07,-27.15 c -11.48,21.84 -28.03,38.94 -49.65,51.31 -21.64,12.35 -45.8,18.53 -72.5,18.53 -41.05,0 -75.04,-14.06 -101.95,-42.21 -26.94,-28.13 -40.39,-63.72 -40.39,-106.74 0,-43.04 13.45,-78.57 40.39,-106.6 26.91,-28.02 60.9,-42.03 101.95,-42.03 28.69,0 54.18,7.06 76.47,21.18 22.28,14.13 40.72,34.87 55.27,62.23 z"
         id="path18" /></clipPath><linearGradient
       x1="0"
       y1="0"
       x2="1"
       y2="0"
       gradientUnits="userSpaceOnUse"
       gradientTransform="matrix(3066.67,13.3333,13.3333,-3066.67,1102.89,1148.92)"
       spreadMethod="pad"
       id="linearGradient28"><stop
         style="stop-opacity:1;stop-color:#29367f"
         offset="0"
         id="stop22" /><stop
         style="stop-opacity:1;stop-color:#29367f"
         offset="0.0898305"
         id="stop24" /><stop
         style="stop-opacity:1;stop-color:#287f39"
         offset="1"
         id="stop26" /></linearGradient><clipPath
       clipPathUnits="userSpaceOnUse"
       id="clipPath38"><path
         d="m 1740.56,1001.12 c 41.06,0 75.02,14.01 101.96,42.03 26.91,28.03 40.39,63.56 40.39,106.6 0,43.25 -13.42,78.88 -40.22,106.91 -26.81,28.03 -60.86,42.04 -102.13,42.04 -41.05,0 -75.04,-14.06 -101.95,-42.21 -26.93,-28.13 -40.39,-63.72 -40.39,-106.74 0,-43.04 13.46,-78.57 40.39,-106.6 26.91,-28.02 60.9,-42.03 101.95,-42.03 z m 0,-42.698 c -54.72,0 -99.92,18.039 -135.54,54.118 -35.65,36.08 -53.46,81.82 -53.46,137.21 0,55.61 17.87,101.45 53.61,137.54 35.77,36.08 80.88,54.12 135.39,54.12 54.73,0 100.08,-18.1 136.06,-54.29 35.96,-36.19 53.94,-81.98 53.94,-137.37 0,-55.39 -17.93,-101.13 -53.79,-137.21 -35.85,-36.079 -81.26,-54.118 -136.21,-54.118 z"
         id="path36" /></clipPath><linearGradient
       x1="0"
       y1="0"
       x2="1"
       y2="0"
       gradientUnits="userSpaceOnUse"
       gradientTransform="matrix(3066.67,13.3333,13.3333,-3066.67,1102.9,1147.14)"
       spreadMethod="pad"
       id="linearGradient46"><stop
         style="stop-opacity:1;stop-color:#29367f"
         offset="0"
         id="stop40" /><stop
         style="stop-opacity:1;stop-color:#29367f"
         offset="0.0898305"
         id="stop42" /><stop
         style="stop-opacity:1;stop-color:#287f39"
         offset="1"
         id="stop44" /></linearGradient><clipPath
       clipPathUnits="userSpaceOnUse"
       id="clipPath56"><path
         d="m 2010.35,968.02 v 365.44 h 23.83 l 237.01,-273.09 v 273.09 h 45.68 V 968.02 h -23.18 L 2055.7,1241.1 V 968.02 Z"
         id="path54" /></clipPath><linearGradient
       x1="0"
       y1="0"
       x2="1"
       y2="0"
       gradientUnits="userSpaceOnUse"
       gradientTransform="matrix(3066.67,13.3333,13.3333,-3066.67,1102.9,1146.12)"
       spreadMethod="pad"
       id="linearGradient64"><stop
         style="stop-opacity:1;stop-color:#29367f"
         offset="0"
         id="stop58" /><stop
         style="stop-opacity:1;stop-color:#29367f"
         offset="0.0898305"
         id="stop60" /><stop
         style="stop-opacity:1;stop-color:#287f39"
         offset="1"
         id="stop62" /></linearGradient><clipPath
       clipPathUnits="userSpaceOnUse"
       id="clipPath74"><path
         d="m 2425.76,968.02 v 365.44 h 23.83 l 237.01,-273.09 v 273.09 h 45.68 V 968.02 h -23.16 L 2471.11,1241.1 V 968.02 Z"
         id="path72" /></clipPath><linearGradient
       x1="0"
       y1="0"
       x2="1"
       y2="0"
       gradientUnits="userSpaceOnUse"
       gradientTransform="matrix(3066.67,13.3333,13.3333,-3066.67,1102.91,1144.32)"
       spreadMethod="pad"
       id="linearGradient82"><stop
         style="stop-opacity:1;stop-color:#29367f"
         offset="0"
         id="stop76" /><stop
         style="stop-opacity:1;stop-color:#29367f"
         offset="0.0898305"
         id="stop78" /><stop
         style="stop-opacity:1;stop-color:#287f39"
         offset="1"
         id="stop80" /></linearGradient><clipPath
       clipPathUnits="userSpaceOnUse"
       id="clipPath92"><path
         d="m 2841.19,968.02 v 365.44 h 287.32 v -42.03 h -241.97 v -107.26 h 146.31 v -42.04 h -146.31 v -132.07 h 256.88 v -42.04 z"
         id="path90" /></clipPath><linearGradient
       x1="0"
       y1="0"
       x2="1"
       y2="0"
       gradientUnits="userSpaceOnUse"
       gradientTransform="matrix(3066.67,13.3333,13.3333,-3066.67,1102.92,1142.52)"
       spreadMethod="pad"
       id="linearGradient100"><stop
         style="stop-opacity:1;stop-color:#29367f"
         offset="0"
         id="stop94" /><stop
         style="stop-opacity:1;stop-color:#29367f"
         offset="0.0898305"
         id="stop96" /><stop
         style="stop-opacity:1;stop-color:#287f39"
         offset="1"
         id="stop98" /></linearGradient><clipPath
       clipPathUnits="userSpaceOnUse"
       id="clipPath110"><path
         d="m 3502.89,1084.53 36.42,-27.14 c -16.77,-31.77 -39.72,-56.22 -68.86,-73.32 -29.12,-17.101 -62.23,-25.648 -99.3,-25.648 -54.73,0 -99.92,18.039 -135.55,54.118 -35.64,36.08 -53.45,81.82 -53.45,137.21 0,55.61 17.87,101.45 53.61,137.54 35.76,36.08 80.88,54.12 135.39,54.12 33.77,0 64.55,-7.41 92.36,-22.18 27.8,-14.79 50.41,-35.87 67.85,-63.22 l -38.06,-27.15 c -11.49,21.84 -28.03,38.94 -49.65,51.31 -21.64,12.35 -45.8,18.53 -72.5,18.53 -41.05,0 -75.04,-14.06 -101.95,-42.21 -26.94,-28.13 -40.39,-63.72 -40.39,-106.74 0,-43.04 13.45,-78.57 40.39,-106.6 26.91,-28.02 60.9,-42.03 101.95,-42.03 28.69,0 54.18,7.06 76.46,21.18 22.29,14.13 40.73,34.87 55.28,62.23 z"
         id="path108" /></clipPath><linearGradient
       x1="0"
       y1="0"
       x2="1"
       y2="0"
       gradientUnits="userSpaceOnUse"
       gradientTransform="matrix(3066.67,13.3333,13.3333,-3066.67,1102.93,1140.05)"
       spreadMethod="pad"
       id="linearGradient118"><stop
         style="stop-opacity:1;stop-color:#29367f"
         offset="0"
         id="stop112" /><stop
         style="stop-opacity:1;stop-color:#29367f"
         offset="0.0898305"
         id="stop114" /><stop
         style="stop-opacity:1;stop-color:#287f39"
         offset="1"
         id="stop116" /></linearGradient><clipPath
       clipPathUnits="userSpaceOnUse"
       id="clipPath128"><path
         d="m 3684.29,968.02 v 323.41 H 3530.7 v 42.03 h 353.2 v -42.03 H 3729.98 V 968.02 Z"
         id="path126" /></clipPath><linearGradient
       x1="0"
       y1="0"
       x2="1"
       y2="0"
       gradientUnits="userSpaceOnUse"
       gradientTransform="matrix(3066.67,13.3333,13.3333,-3066.67,1102.93,1139.75)"
       spreadMethod="pad"
       id="linearGradient136"><stop
         style="stop-opacity:1;stop-color:#29367f"
         offset="0"
         id="stop130" /><stop
         style="stop-opacity:1;stop-color:#29367f"
         offset="0.0898305"
         id="stop132" /><stop
         style="stop-opacity:1;stop-color:#287f39"
         offset="1"
         id="stop134" /></linearGradient><clipPath
       clipPathUnits="userSpaceOnUse"
       id="clipPath146"><path
         d="m 2203.29,1905 h -16.94 c -121.31,0 -220,98.69 -220,220 v 750 c 0,49.62 -40.38,90 -90,90 h -27.42 c -49.63,0 -90,-40.38 -90,-90 v -370 c 0,-121.31 -98.69,-220 -220,-220 h -440.91 c -35.9,0 -65,29.1 -65,65 0,35.9 29.1,65 65,65 h 440.91 c 49.63,0 90,40.37 90,90 v 370 c 0,121.31 98.69,220 220,220 h 27.42 c 121.3,0 220,-98.69 220,-220 v -750 c 0,-49.63 40.37,-90 90,-90 h 16.94 c 49.63,0 90,40.37 90,90 v 436.67 c 0,121.3 98.69,220 220,220 h 26.39 c 121.3,0 220,-98.7 220,-220 V 2280 c 0,-49.63 40.37,-90 90,-90 49.62,0 90,40.37 90,90 v 432.39 c 0,121.31 98.69,220 220,220 h 23.41 c 121.31,0 220,-98.69 220,-220 v -154.06 c 0,-49.62 40.37,-90 90,-90 h 408.89 c 35.9,0 65,-29.1 65,-65 0,-35.9 -29.1,-65 -65,-65 h -408.89 c -121.31,0 -220,98.69 -220,220 v 154.06 c 0,49.62 -40.37,90 -90,90 h -23.41 c -49.63,0 -90,-40.38 -90,-90 V 2280 c 0,-121.31 -98.7,-220 -220,-220 -121.31,0 -220,98.69 -220,220 v 281.67 c 0,49.62 -40.38,90 -90,90 h -26.39 c -49.63,0 -90,-40.38 -90,-90 V 2125 c 0,-121.31 -98.69,-220 -220,-220 z"
         id="path144" /></clipPath><linearGradient
       x1="0"
       y1="0"
       x2="1"
       y2="0"
       gradientUnits="userSpaceOnUse"
       gradientTransform="matrix(2933.96,0,0,-2933.96,1033.02,2500)"
       spreadMethod="pad"
       id="linearGradient154"><stop
         style="stop-opacity:1;stop-color:#29367f"
         offset="0"
         id="stop148" /><stop
         style="stop-opacity:1;stop-color:#29367f"
         offset="0.0898305"
         id="stop150" /><stop
         style="stop-opacity:1;stop-color:#287f39"
         offset="1"
         id="stop152" /></linearGradient><clipPath
       clipPathUnits="userSpaceOnUse"
       id="clipPath164"><path
         d="m 2051.71,3382.76 c 0,-100.64 -81.6,-182.23 -182.24,-182.23 -100.64,0 -182.24,81.59 -182.24,182.23 0,100.65 81.6,182.24 182.24,182.24 100.64,0 182.24,-81.59 182.24,-182.24 z"
         id="path162" /></clipPath><linearGradient
       x1="0"
       y1="0"
       x2="1"
       y2="0"
       gradientUnits="userSpaceOnUse"
       gradientTransform="matrix(364.468,0,0,-364.468,1687.24,3382.77)"
       spreadMethod="pad"
       id="linearGradient172"><stop
         style="stop-opacity:1;stop-color:#29367f"
         offset="0"
         id="stop166" /><stop
         style="stop-opacity:1;stop-color:#29367f"
         offset="0.0898305"
         id="stop168" /><stop
         style="stop-opacity:1;stop-color:#287f39"
         offset="1"
         id="stop170" /></linearGradient><clipPath
       clipPathUnits="userSpaceOnUse"
       id="clipPath182"><path
         d="m 2682.23,3096.29 c 0,-100.65 -81.59,-182.23 -182.23,-182.23 -100.65,0 -182.24,81.58 -182.24,182.23 0,100.64 81.59,182.24 182.24,182.24 100.64,0 182.23,-81.6 182.23,-182.24 z"
         id="path180" /></clipPath><linearGradient
       x1="0"
       y1="0"
       x2="1"
       y2="0"
       gradientUnits="userSpaceOnUse"
       gradientTransform="matrix(364.468,0,0,-364.468,2317.77,3096.29)"
       spreadMethod="pad"
       id="linearGradient190"><stop
         style="stop-opacity:1;stop-color:#29367f"
         offset="0"
         id="stop184" /><stop
         style="stop-opacity:1;stop-color:#29367f"
         offset="0.0898305"
         id="stop186" /><stop
         style="stop-opacity:1;stop-color:#287f39"
         offset="1"
         id="stop188" /></linearGradient><clipPath
       clipPathUnits="userSpaceOnUse"
       id="clipPath200"><path
         d="m 3364.38,3200.53 c 0,-100.64 -81.59,-182.23 -182.23,-182.23 -100.65,0 -182.24,81.59 -182.24,182.23 0,100.65 81.59,182.23 182.24,182.23 100.64,0 182.23,-81.58 182.23,-182.23 z"
         id="path198" /></clipPath><linearGradient
       x1="0"
       y1="0"
       x2="1"
       y2="0"
       gradientUnits="userSpaceOnUse"
       gradientTransform="matrix(364.468,0,0,-364.468,2999.91,3200.53)"
       spreadMethod="pad"
       id="linearGradient208"><stop
         style="stop-opacity:1;stop-color:#29367f"
         offset="0"
         id="stop202" /><stop
         style="stop-opacity:1;stop-color:#29367f"
         offset="0.0898305"
         id="stop204" /><stop
         style="stop-opacity:1;stop-color:#287f39"
         offset="1"
         id="stop206" /></linearGradient><clipPath
       clipPathUnits="userSpaceOnUse"
       id="clipPath146-7"><path
         d="m 2203.29,1905 h -16.94 c -121.31,0 -220,98.69 -220,220 v 750 c 0,49.62 -40.38,90 -90,90 h -27.42 c -49.63,0 -90,-40.38 -90,-90 v -370 c 0,-121.31 -98.69,-220 -220,-220 h -440.91 c -35.9,0 -65,29.1 -65,65 0,35.9 29.1,65 65,65 h 440.91 c 49.63,0 90,40.37 90,90 v 370 c 0,121.31 98.69,220 220,220 h 27.42 c 121.3,0 220,-98.69 220,-220 v -750 c 0,-49.63 40.37,-90 90,-90 h 16.94 c 49.63,0 90,40.37 90,90 v 436.67 c 0,121.3 98.69,220 220,220 h 26.39 c 121.3,0 220,-98.7 220,-220 V 2280 c 0,-49.63 40.37,-90 90,-90 49.62,0 90,40.37 90,90 v 432.39 c 0,121.31 98.69,220 220,220 h 23.41 c 121.31,0 220,-98.69 220,-220 v -154.06 c 0,-49.62 40.37,-90 90,-90 h 408.89 c 35.9,0 65,-29.1 65,-65 0,-35.9 -29.1,-65 -65,-65 h -408.89 c -121.31,0 -220,98.69 -220,220 v 154.06 c 0,49.62 -40.37,90 -90,90 h -23.41 c -49.63,0 -90,-40.38 -90,-90 V 2280 c 0,-121.31 -98.7,-220 -220,-220 -121.31,0 -220,98.69 -220,220 v 281.67 c 0,49.62 -40.38,90 -90,90 h -26.39 c -49.63,0 -90,-40.38 -90,-90 V 2125 c 0,-121.31 -98.69,-220 -220,-220 z"
         id="path144-4" /></clipPath><clipPath
       clipPathUnits="userSpaceOnUse"
       id="clipPath164-4"><path
         d="m 2051.71,3382.76 c 0,-100.64 -81.6,-182.23 -182.24,-182.23 -100.64,0 -182.24,81.59 -182.24,182.23 0,100.65 81.6,182.24 182.24,182.24 100.64,0 182.24,-81.59 182.24,-182.24 z"
         id="path162-2" /></clipPath><clipPath
       clipPathUnits="userSpaceOnUse"
       id="clipPath182-5"><path
         d="m 2682.23,3096.29 c 0,-100.65 -81.59,-182.23 -182.23,-182.23 -100.65,0 -182.24,81.58 -182.24,182.23 0,100.64 81.59,182.24 182.24,182.24 100.64,0 182.23,-81.6 182.23,-182.24 z"
         id="path180-4" /></clipPath><clipPath
       clipPathUnits="userSpaceOnUse"
       id="clipPath200-1"><path
         d="m 3364.38,3200.53 c 0,-100.64 -81.59,-182.23 -182.23,-182.23 -100.65,0 -182.24,81.59 -182.24,182.23 0,100.65 81.59,182.23 182.24,182.23 100.64,0 182.23,-81.58 182.23,-182.23 z"
         id="path198-2" /></clipPath><clipPath
       clipPathUnits="userSpaceOnUse"
       id="clipPath146-7-3"><path
         d="m 2203.29,1905 h -16.94 c -121.31,0 -220,98.69 -220,220 v 750 c 0,49.62 -40.38,90 -90,90 h -27.42 c -49.63,0 -90,-40.38 -90,-90 v -370 c 0,-121.31 -98.69,-220 -220,-220 h -440.91 c -35.9,0 -65,29.1 -65,65 0,35.9 29.1,65 65,65 h 440.91 c 49.63,0 90,40.37 90,90 v 370 c 0,121.31 98.69,220 220,220 h 27.42 c 121.3,0 220,-98.69 220,-220 v -750 c 0,-49.63 40.37,-90 90,-90 h 16.94 c 49.63,0 90,40.37 90,90 v 436.67 c 0,121.3 98.69,220 220,220 h 26.39 c 121.3,0 220,-98.7 220,-220 V 2280 c 0,-49.63 40.37,-90 90,-90 49.62,0 90,40.37 90,90 v 432.39 c 0,121.31 98.69,220 220,220 h 23.41 c 121.31,0 220,-98.69 220,-220 v -154.06 c 0,-49.62 40.37,-90 90,-90 h 408.89 c 35.9,0 65,-29.1 65,-65 0,-35.9 -29.1,-65 -65,-65 h -408.89 c -121.31,0 -220,98.69 -220,220 v 154.06 c 0,49.62 -40.37,90 -90,90 h -23.41 c -49.63,0 -90,-40.38 -90,-90 V 2280 c 0,-121.31 -98.7,-220 -220,-220 -121.31,0 -220,98.69 -220,220 v 281.67 c 0,49.62 -40.38,90 -90,90 h -26.39 c -49.63,0 -90,-40.38 -90,-90 V 2125 c 0,-121.31 -98.69,-220 -220,-220 z"
         id="path144-4-5" /></clipPath><clipPath
       clipPathUnits="userSpaceOnUse"
       id="clipPath164-4-0"><path
         d="m 2051.71,3382.76 c 0,-100.64 -81.6,-182.23 -182.24,-182.23 -100.64,0 -182.24,81.59 -182.24,182.23 0,100.65 81.6,182.24 182.24,182.24 100.64,0 182.24,-81.59 182.24,-182.24 z"
         id="path162-2-1" /></clipPath><clipPath
       clipPathUnits="userSpaceOnUse"
       id="clipPath182-5-5"><path
         d="m 2682.23,3096.29 c 0,-100.65 -81.59,-182.23 -182.23,-182.23 -100.65,0 -182.24,81.58 -182.24,182.23 0,100.64 81.59,182.24 182.24,182.24 100.64,0 182.23,-81.6 182.23,-182.24 z"
         id="path180-4-8" /></clipPath><clipPath
       clipPathUnits="userSpaceOnUse"
       id="clipPath200-1-6"><path
         d="m 3364.38,3200.53 c 0,-100.64 -81.59,-182.23 -182.23,-182.23 -100.65,0 -182.24,81.59 -182.24,182.23 0,100.65 81.59,182.23 182.24,182.23 100.64,0 182.23,-81.58 182.23,-182.23 z"
         id="path198-2-1" /></clipPath><clipPath
       clipPathUnits="userSpaceOnUse"
       id="clipPath146-7-3-8"><path
         d="m 2203.29,1905 h -16.94 c -121.31,0 -220,98.69 -220,220 v 750 c 0,49.62 -40.38,90 -90,90 h -27.42 c -49.63,0 -90,-40.38 -90,-90 v -370 c 0,-121.31 -98.69,-220 -220,-220 h -440.91 c -35.9,0 -65,29.1 -65,65 0,35.9 29.1,65 65,65 h 440.91 c 49.63,0 90,40.37 90,90 v 370 c 0,121.31 98.69,220 220,220 h 27.42 c 121.3,0 220,-98.69 220,-220 v -750 c 0,-49.63 40.37,-90 90,-90 h 16.94 c 49.63,0 90,40.37 90,90 v 436.67 c 0,121.3 98.69,220 220,220 h 26.39 c 121.3,0 220,-98.7 220,-220 V 2280 c 0,-49.63 40.37,-90 90,-90 49.62,0 90,40.37 90,90 v 432.39 c 0,121.31 98.69,220 220,220 h 23.41 c 121.31,0 220,-98.69 220,-220 v -154.06 c 0,-49.62 40.37,-90 90,-90 h 408.89 c 35.9,0 65,-29.1 65,-65 0,-35.9 -29.1,-65 -65,-65 h -408.89 c -121.31,0 -220,98.69 -220,220 v 154.06 c 0,49.62 -40.37,90 -90,90 h -23.41 c -49.63,0 -90,-40.38 -90,-90 V 2280 c 0,-121.31 -98.7,-220 -220,-220 -121.31,0 -220,98.69 -220,220 v 281.67 c 0,49.62 -40.38,90 -90,90 h -26.39 c -49.63,0 -90,-40.38 -90,-90 V 2125 c 0,-121.31 -98.69,-220 -220,-220 z"
         id="path144-4-5-1" /></clipPath><clipPath
       clipPathUnits="userSpaceOnUse"
       id="clipPath164-4-0-5"><path
         d="m 2051.71,3382.76 c 0,-100.64 -81.6,-182.23 -182.24,-182.23 -100.64,0 -182.24,81.59 -182.24,182.23 0,100.65 81.6,182.24 182.24,182.24 100.64,0 182.24,-81.59 182.24,-182.24 z"
         id="path162-2-1-2" /></clipPath><clipPath
       clipPathUnits="userSpaceOnUse"
       id="clipPath182-5-5-8"><path
         d="m 2682.23,3096.29 c 0,-100.65 -81.59,-182.23 -182.23,-182.23 -100.65,0 -182.24,81.58 -182.24,182.23 0,100.64 81.59,182.24 182.24,182.24 100.64,0 182.23,-81.6 182.23,-182.24 z"
         id="path180-4-8-3" /></clipPath><clipPath
       clipPathUnits="userSpaceOnUse"
       id="clipPath200-1-6-1"><path
         d="m 3364.38,3200.53 c 0,-100.64 -81.59,-182.23 -182.23,-182.23 -100.65,0 -182.24,81.59 -182.24,182.23 0,100.65 81.59,182.23 182.24,182.23 100.64,0 182.23,-81.58 182.23,-182.23 z"
         id="path198-2-1-5" /></clipPath><clipPath
       clipPathUnits="userSpaceOnUse"
       id="clipPath146-7-3-4"><path
         d="m 2203.29,1905 h -16.94 c -121.31,0 -220,98.69 -220,220 v 750 c 0,49.62 -40.38,90 -90,90 h -27.42 c -49.63,0 -90,-40.38 -90,-90 v -370 c 0,-121.31 -98.69,-220 -220,-220 h -440.91 c -35.9,0 -65,29.1 -65,65 0,35.9 29.1,65 65,65 h 440.91 c 49.63,0 90,40.37 90,90 v 370 c 0,121.31 98.69,220 220,220 h 27.42 c 121.3,0 220,-98.69 220,-220 v -750 c 0,-49.63 40.37,-90 90,-90 h 16.94 c 49.63,0 90,40.37 90,90 v 436.67 c 0,121.3 98.69,220 220,220 h 26.39 c 121.3,0 220,-98.7 220,-220 V 2280 c 0,-49.63 40.37,-90 90,-90 49.62,0 90,40.37 90,90 v 432.39 c 0,121.31 98.69,220 220,220 h 23.41 c 121.31,0 220,-98.69 220,-220 v -154.06 c 0,-49.62 40.37,-90 90,-90 h 408.89 c 35.9,0 65,-29.1 65,-65 0,-35.9 -29.1,-65 -65,-65 h -408.89 c -121.31,0 -220,98.69 -220,220 v 154.06 c 0,49.62 -40.37,90 -90,90 h -23.41 c -49.63,0 -90,-40.38 -90,-90 V 2280 c 0,-121.31 -98.7,-220 -220,-220 -121.31,0 -220,98.69 -220,220 v 281.67 c 0,49.62 -40.38,90 -90,90 h -26.39 c -49.63,0 -90,-40.38 -90,-90 V 2125 c 0,-121.31 -98.69,-220 -220,-220 z"
         id="path144-4-5-2" /></clipPath><clipPath
       clipPathUnits="userSpaceOnUse"
       id="clipPath164-4-0-50"><path
         d="m 2051.71,3382.76 c 0,-100.64 -81.6,-182.23 -182.24,-182.23 -100.64,0 -182.24,81.59 -182.24,182.23 0,100.65 81.6,182.24 182.24,182.24 100.64,0 182.24,-81.59 182.24,-182.24 z"
         id="path162-2-1-8" /></clipPath><clipPath
       clipPathUnits="userSpaceOnUse"
       id="clipPath182-5-5-1"><path
         d="m 2682.23,3096.29 c 0,-100.65 -81.59,-182.23 -182.23,-182.23 -100.65,0 -182.24,81.58 -182.24,182.23 0,100.64 81.59,182.24 182.24,182.24 100.64,0 182.23,-81.6 182.23,-182.24 z"
         id="path180-4-8-8" /></clipPath><clipPath
       clipPathUnits="userSpaceOnUse"
       id="clipPath200-1-6-0"><path
         d="m 3364.38,3200.53 c 0,-100.64 -81.59,-182.23 -182.23,-182.23 -100.65,0 -182.24,81.59 -182.24,182.23 0,100.65 81.59,182.23 182.24,182.23 100.64,0 182.23,-81.58 182.23,-182.23 z"
         id="path198-2-1-3" /></clipPath><clipPath
       clipPathUnits="userSpaceOnUse"
       id="clipPath146-7-3-1"><path
         d="m 2203.29,1905 h -16.94 c -121.31,0 -220,98.69 -220,220 v 750 c 0,49.62 -40.38,90 -90,90 h -27.42 c -49.63,0 -90,-40.38 -90,-90 v -370 c 0,-121.31 -98.69,-220 -220,-220 h -440.91 c -35.9,0 -65,29.1 -65,65 0,35.9 29.1,65 65,65 h 440.91 c 49.63,0 90,40.37 90,90 v 370 c 0,121.31 98.69,220 220,220 h 27.42 c 121.3,0 220,-98.69 220,-220 v -750 c 0,-49.63 40.37,-90 90,-90 h 16.94 c 49.63,0 90,40.37 90,90 v 436.67 c 0,121.3 98.69,220 220,220 h 26.39 c 121.3,0 220,-98.7 220,-220 V 2280 c 0,-49.63 40.37,-90 90,-90 49.62,0 90,40.37 90,90 v 432.39 c 0,121.31 98.69,220 220,220 h 23.41 c 121.31,0 220,-98.69 220,-220 v -154.06 c 0,-49.62 40.37,-90 90,-90 h 408.89 c 35.9,0 65,-29.1 65,-65 0,-35.9 -29.1,-65 -65,-65 h -408.89 c -121.31,0 -220,98.69 -220,220 v 154.06 c 0,49.62 -40.37,90 -90,90 h -23.41 c -49.63,0 -90,-40.38 -90,-90 V 2280 c 0,-121.31 -98.7,-220 -220,-220 -121.31,0 -220,98.69 -220,220 v 281.67 c 0,49.62 -40.38,90 -90,90 h -26.39 c -49.63,0 -90,-40.38 -90,-90 V 2125 c 0,-121.31 -98.69,-220 -220,-220 z"
         id="path144-4-5-29" /></clipPath><clipPath
       clipPathUnits="userSpaceOnUse"
       id="clipPath164-4-0-4"><path
         d="m 2051.71,3382.76 c 0,-100.64 -81.6,-182.23 -182.24,-182.23 -100.64,0 -182.24,81.59 -182.24,182.23 0,100.65 81.6,182.24 182.24,182.24 100.64,0 182.24,-81.59 182.24,-182.24 z"
         id="path162-2-1-5" /></clipPath><clipPath
       clipPathUnits="userSpaceOnUse"
       id="clipPath182-5-5-7"><path
         d="m 2682.23,3096.29 c 0,-100.65 -81.59,-182.23 -182.23,-182.23 -100.65,0 -182.24,81.58 -182.24,182.23 0,100.64 81.59,182.24 182.24,182.24 100.64,0 182.23,-81.6 182.23,-182.24 z"
         id="path180-4-8-2" /></clipPath><clipPath
       clipPathUnits="userSpaceOnUse"
       id="clipPath200-1-6-19"><path
         d="m 3364.38,3200.53 c 0,-100.64 -81.59,-182.23 -182.23,-182.23 -100.65,0 -182.24,81.59 -182.24,182.23 0,100.65 81.59,182.23 182.24,182.23 100.64,0 182.23,-81.58 182.23,-182.23 z"
         id="path198-2-1-9" /></clipPath><clipPath
       clipPathUnits="userSpaceOnUse"
       id="clipPath146-7-3-9"><path
         d="m 2203.29,1905 h -16.94 c -121.31,0 -220,98.69 -220,220 v 750 c 0,49.62 -40.38,90 -90,90 h -27.42 c -49.63,0 -90,-40.38 -90,-90 v -370 c 0,-121.31 -98.69,-220 -220,-220 h -440.91 c -35.9,0 -65,29.1 -65,65 0,35.9 29.1,65 65,65 h 440.91 c 49.63,0 90,40.37 90,90 v 370 c 0,121.31 98.69,220 220,220 h 27.42 c 121.3,0 220,-98.69 220,-220 v -750 c 0,-49.63 40.37,-90 90,-90 h 16.94 c 49.63,0 90,40.37 90,90 v 436.67 c 0,121.3 98.69,220 220,220 h 26.39 c 121.3,0 220,-98.7 220,-220 V 2280 c 0,-49.63 40.37,-90 90,-90 49.62,0 90,40.37 90,90 v 432.39 c 0,121.31 98.69,220 220,220 h 23.41 c 121.31,0 220,-98.69 220,-220 v -154.06 c 0,-49.62 40.37,-90 90,-90 h 408.89 c 35.9,0 65,-29.1 65,-65 0,-35.9 -29.1,-65 -65,-65 h -408.89 c -121.31,0 -220,98.69 -220,220 v 154.06 c 0,49.62 -40.37,90 -90,90 h -23.41 c -49.63,0 -90,-40.38 -90,-90 V 2280 c 0,-121.31 -98.7,-220 -220,-220 -121.31,0 -220,98.69 -220,220 v 281.67 c 0,49.62 -40.38,90 -90,90 h -26.39 c -49.63,0 -90,-40.38 -90,-90 V 2125 c 0,-121.31 -98.69,-220 -220,-220 z"
         id="path144-4-5-9" /></clipPath><clipPath
       clipPathUnits="userSpaceOnUse"
       id="clipPath146-7-3-7"><path
         d="m 2203.29,1905 h -16.94 c -121.31,0 -220,98.69 -220,220 v 750 c 0,49.62 -40.38,90 -90,90 h -27.42 c -49.63,0 -90,-40.38 -90,-90 v -370 c 0,-121.31 -98.69,-220 -220,-220 h -440.91 c -35.9,0 -65,29.1 -65,65 0,35.9 29.1,65 65,65 h 440.91 c 49.63,0 90,40.37 90,90 v 370 c 0,121.31 98.69,220 220,220 h 27.42 c 121.3,0 220,-98.69 220,-220 v -750 c 0,-49.63 40.37,-90 90,-90 h 16.94 c 49.63,0 90,40.37 90,90 v 436.67 c 0,121.3 98.69,220 220,220 h 26.39 c 121.3,0 220,-98.7 220,-220 V 2280 c 0,-49.63 40.37,-90 90,-90 49.62,0 90,40.37 90,90 v 432.39 c 0,121.31 98.69,220 220,220 h 23.41 c 121.31,0 220,-98.69 220,-220 v -154.06 c 0,-49.62 40.37,-90 90,-90 h 408.89 c 35.9,0 65,-29.1 65,-65 0,-35.9 -29.1,-65 -65,-65 h -408.89 c -121.31,0 -220,98.69 -220,220 v 154.06 c 0,49.62 -40.37,90 -90,90 h -23.41 c -49.63,0 -90,-40.38 -90,-90 V 2280 c 0,-121.31 -98.7,-220 -220,-220 -121.31,0 -220,98.69 -220,220 v 281.67 c 0,49.62 -40.38,90 -90,90 h -26.39 c -49.63,0 -90,-40.38 -90,-90 V 2125 c 0,-121.31 -98.69,-220 -220,-220 z"
         id="path144-4-5-3" /></clipPath></defs><sodipodi:namedview
     pagecolor="#ffffff"
     bordercolor="#666666"
     borderopacity="1"
     objecttolerance="10"
     gridtolerance="10"
     guidetolerance="10"
     inkscape:pageopacity="0"
     inkscape:pageshadow="2"
     inkscape:window-width="1366"
     inkscape:window-height="705"
     id="namedview4"
     showgrid="false"
     inkscape:zoom="0.57063514"
     inkscape:cx="158.81771"
     inkscape:cy="381.41479"
     inkscape:window-x="-8"
     inkscape:window-y="-8"
     inkscape:window-maximized="1"
     inkscape:current-layer="g12"
     inkscape:document-rotation="0" /><g
     id="g10"
     inkscape:groupmode="layer"
     inkscape:label="ink_ext_XXXXXX"
     transform="matrix(1.3333333,0,0,-1.3333333,0,666.66667)"><g
       id="g12"
       transform="scale(0.1)"><g
         id="g140-6-0-1"
         style="fill:#22a5e5;fill-opacity:1"
         transform="matrix(1.6867555,0.01379798,-0.01379798,1.6867555,-1673.4888,-1949.077)"><g
           id="g142-9-7-5"
           clip-path="url(#clipPath146-7-3-7)"
           style="fill:#22a5e5;fill-opacity:1"><path
             d="m 2203.29,1905 h -16.94 c -121.31,0 -220,98.69 -220,220 v 750 c 0,49.62 -40.38,90 -90,90 h -27.42 c -49.63,0 -90,-40.38 -90,-90 v -370 c 0,-121.31 -98.69,-220 -220,-220 h -440.91 c -35.9,0 -65,29.1 -65,65 0,35.9 29.1,65 65,65 h 440.91 c 49.63,0 90,40.37 90,90 v 370 c 0,121.31 98.69,220 220,220 h 27.42 c 121.3,0 220,-98.69 220,-220 v -750 c 0,-49.63 40.37,-90 90,-90 h 16.94 c 49.63,0 90,40.37 90,90 v 436.67 c 0,121.3 98.69,220 220,220 h 26.39 c 121.3,0 220,-98.7 220,-220 V 2280 c 0,-49.63 40.37,-90 90,-90 49.62,0 90,40.37 90,90 v 432.39 c 0,121.31 98.69,220 220,220 h 23.41 c 121.31,0 220,-98.69 220,-220 v -154.06 c 0,-49.62 40.37,-90 90,-90 h 408.89 c 35.9,0 65,-29.1 65,-65 0,-35.9 -29.1,-65 -65,-65 h -408.89 c -121.31,0 -220,98.69 -220,220 v 154.06 c 0,49.62 -40.37,90 -90,90 h -23.41 c -49.63,0 -90,-40.38 -90,-90 V 2280 c 0,-121.31 -98.7,-220 -220,-220 -121.31,0 -220,98.69 -220,220 v 281.67 c 0,49.62 -40.38,90 -90,90 h -26.39 c -49.63,0 -90,-40.38 -90,-90 V 2125 c 0,-121.31 -98.69,-220 -220,-220"
             style="fill:#22a5e5;fill-opacity:1;fill-rule:nonzero;stroke:none"
             id="path156-2-7-9" /></g></g><g
         id="g158-6-8"
         style="fill:#22a5e5;fill-opacity:1"
         transform="matrix(1.6867555,0.013798,-0.013798,1.6867555,-1661.0517,-1890.6643)"><g
           id="g160-4-1"
           clip-path="url(#clipPath164-4-0)"
           style="fill:#22a5e5;fill-opacity:1"><path
             d="m 2051.71,3382.76 c 0,-100.64 -81.6,-182.23 -182.24,-182.23 -100.64,0 -182.24,81.59 -182.24,182.23 0,100.65 81.6,182.24 182.24,182.24 100.64,0 182.24,-81.59 182.24,-182.24"
             style="fill:#22a5e5;fill-opacity:1;fill-rule:nonzero;stroke:none"
             id="path174-5-1" /></g></g><g
         id="g176-7-9"
         style="fill:#22a5e5;fill-opacity:1"
         transform="matrix(1.6867555,0.013798,-0.013798,1.6867555,-1661.0517,-1890.6643)"><g
           id="g178-6-9"
           clip-path="url(#clipPath182-5-5)"
           style="fill:#22a5e5;fill-opacity:1"><path
             d="m 2682.23,3096.29 c 0,-100.65 -81.59,-182.23 -182.23,-182.23 -100.65,0 -182.24,81.58 -182.24,182.23 0,100.64 81.59,182.24 182.24,182.24 100.64,0 182.23,-81.6 182.23,-182.24"
             style="fill:#22a5e5;fill-opacity:1;fill-rule:nonzero;stroke:none"
             id="path192-5-1" /></g></g><g
         id="g194-9-5"
         style="fill:#22a5e5;fill-opacity:1"
         transform="matrix(1.6867555,0.013798,-0.013798,1.6867555,-1661.0517,-1890.6643)"><g
           id="g196-5-1"
           clip-path="url(#clipPath200-1-6)"
           style="fill:#22a5e5;fill-opacity:1"><path
             d="m 3364.38,3200.53 c 0,-100.64 -81.59,-182.23 -182.23,-182.23 -100.65,0 -182.24,81.59 -182.24,182.23 0,100.65 81.59,182.23 182.24,182.23 100.64,0 182.23,-81.58 182.23,-182.23"
             style="fill:#22a5e5;fill-opacity:1;fill-rule:nonzero;stroke:none"
             id="path210-8-0" /></g></g><g
         id="g140-6-0-6"
         style="fill:#22a5e5;fill-opacity:1"
         transform="matrix(1.6867555,0.01379798,-0.01379798,1.6867555,-7343.9471,-5905.1971)"><g
           id="g142-9-7-7"
           clip-path="url(#clipPath146-7-3-1)"
           style="fill:#22a5e5;fill-opacity:1"><path
             d="m 2203.29,1905 h -16.94 c -121.31,0 -220,98.69 -220,220 v 750 c 0,49.62 -40.38,90 -90,90 h -27.42 c -49.63,0 -90,-40.38 -90,-90 v -370 c 0,-121.31 -98.69,-220 -220,-220 h -440.91 c -35.9,0 -65,29.1 -65,65 0,35.9 29.1,65 65,65 h 440.91 c 49.63,0 90,40.37 90,90 v 370 c 0,121.31 98.69,220 220,220 h 27.42 c 121.3,0 220,-98.69 220,-220 v -750 c 0,-49.63 40.37,-90 90,-90 h 16.94 c 49.63,0 90,40.37 90,90 v 436.67 c 0,121.3 98.69,220 220,220 h 26.39 c 121.3,0 220,-98.7 220,-220 V 2280 c 0,-49.63 40.37,-90 90,-90 49.62,0 90,40.37 90,90 v 432.39 c 0,121.31 98.69,220 220,220 h 23.41 c 121.31,0 220,-98.69 220,-220 v -154.06 c 0,-49.62 40.37,-90 90,-90 h 408.89 c 35.9,0 65,-29.1 65,-65 0,-35.9 -29.1,-65 -65,-65 h -408.89 c -121.31,0 -220,98.69 -220,220 v 154.06 c 0,49.62 -40.37,90 -90,90 h -23.41 c -49.63,0 -90,-40.38 -90,-90 V 2280 c 0,-121.31 -98.7,-220 -220,-220 -121.31,0 -220,98.69 -220,220 v 281.67 c 0,49.62 -40.38,90 -90,90 h -26.39 c -49.63,0 -90,-40.38 -90,-90 V 2125 c 0,-121.31 -98.69,-220 -220,-220"
             style="fill:#22a5e5;fill-opacity:1;fill-rule:nonzero;stroke:none"
             id="path156-2-7-8" /></g></g><g
         id="g158-6-8-7"
         style="fill:#22a5e5;fill-opacity:1"
         transform="matrix(1.6867555,0.01379798,-0.01379798,1.6867555,-7343.9471,-5905.1971)"><g
           id="g160-4-1-8"
           clip-path="url(#clipPath164-4-0-4)"
           style="fill:#22a5e5;fill-opacity:1"><path
             d="m 2051.71,3382.76 c 0,-100.64 -81.6,-182.23 -182.24,-182.23 -100.64,0 -182.24,81.59 -182.24,182.23 0,100.65 81.6,182.24 182.24,182.24 100.64,0 182.24,-81.59 182.24,-182.24"
             style="fill:#22a5e5;fill-opacity:1;fill-rule:nonzero;stroke:none"
             id="path174-5-1-3" /></g></g><g
         id="g176-7-9-0"
         style="fill:#22a5e5;fill-opacity:1"
         transform="matrix(1.6867555,0.01379798,-0.01379798,1.6867555,-7343.9471,-5905.1971)"><g
           id="g178-6-9-1"
           clip-path="url(#clipPath182-5-5-7)"
           style="fill:#22a5e5;fill-opacity:1"><path
             d="m 2682.23,3096.29 c 0,-100.65 -81.59,-182.23 -182.23,-182.23 -100.65,0 -182.24,81.58 -182.24,182.23 0,100.64 81.59,182.24 182.24,182.24 100.64,0 182.23,-81.6 182.23,-182.24"
             style="fill:#22a5e5;fill-opacity:1;fill-rule:nonzero;stroke:none"
             id="path192-5-1-4" /></g></g><g
         id="g194-9-5-2"
         style="fill:#22a5e5;fill-opacity:1"
         transform="matrix(1.6867555,0.01379798,-0.01379798,1.6867555,-7343.9471,-5905.1971)"><g
           id="g196-5-1-8"
           clip-path="url(#clipPath200-1-6-19)"
           style="fill:#22a5e5;fill-opacity:1"><path
             d="m 3364.38,3200.53 c 0,-100.64 -81.59,-182.23 -182.23,-182.23 -100.65,0 -182.24,81.59 -182.24,182.23 0,100.65 81.59,182.23 182.24,182.23 100.64,0 182.23,-81.58 182.23,-182.23"
             style="fill:#22a5e5;fill-opacity:1;fill-rule:nonzero;stroke:none"
             id="path210-8-0-0" /></g></g></g></g></svg>
